<mxfile host="65bd71144e">
    <diagram id="u1-wfbKniJN4tYRaOvmy" name="Page-1">
        <mxGraphModel dx="-2629" dy="1734" grid="1" gridSize="10" guides="1" tooltips="1" connect="1" arrows="1" fold="1" page="1" pageScale="1" pageWidth="850" pageHeight="1100" math="0" shadow="0">
            <root>
                <mxCell id="0"/>
                <mxCell id="1" parent="0"/>
                <mxCell id="80" style="edgeStyle=none;html=1;fontColor=#C2C474;curved=1;strokeWidth=6;" parent="1" edge="1">
                    <mxGeometry relative="1" as="geometry">
                        <mxPoint x="3680" y="-790" as="sourcePoint"/>
                        <mxPoint x="3680" y="-619.49" as="targetPoint"/>
                    </mxGeometry>
                </mxCell>
                <mxCell id="2" value="C0" style="whiteSpace=wrap;html=1;aspect=fixed;fillColor=#d5e8d4;strokeColor=#000000;strokeWidth=3;fontSize=50;fontStyle=1;horizontal=1;verticalAlign=top;" parent="1" vertex="1">
                    <mxGeometry x="3827.2699999999995" y="-929" width="140" height="140" as="geometry"/>
                </mxCell>
                <mxCell id="124" style="edgeStyle=none;html=1;entryX=0.5;entryY=1;entryDx=0;entryDy=0;fontSize=12;strokeWidth=4;" edge="1" parent="1" source="3" target="40">
                    <mxGeometry relative="1" as="geometry"/>
                </mxCell>
                <mxCell id="3" value="" style="rounded=0;whiteSpace=wrap;html=1;fontSize=50;fontColor=#000000;strokeColor=#000000;strokeWidth=6;fillColor=#000000;rotation=-180;" parent="1" vertex="1">
                    <mxGeometry x="3882.2699999999995" y="-789" width="30" height="11" as="geometry"/>
                </mxCell>
                <mxCell id="5" value="RAG" style="ellipse;whiteSpace=wrap;html=1;aspect=fixed;sketch=0;fillColor=#d5e8d4;strokeColor=#82b366;" parent="1" vertex="1">
                    <mxGeometry x="3829.9999999999995" y="-874" width="30" height="30" as="geometry"/>
                </mxCell>
                <mxCell id="6" value="" style="endArrow=none;dashed=1;html=1;dashPattern=1 3;strokeWidth=1;exitX=0.5;exitY=0;exitDx=0;exitDy=0;jumpSize=0;" parent="1" edge="1">
                    <mxGeometry width="50" height="50" relative="1" as="geometry">
                        <mxPoint x="3819.9999999999995" y="-855" as="sourcePoint"/>
                        <mxPoint x="3785.23" y="-894" as="targetPoint"/>
                    </mxGeometry>
                </mxCell>
                <mxCell id="7" value="" style="endArrow=none;dashed=1;html=1;dashPattern=1 3;strokeWidth=1;exitX=0.5;exitY=0;exitDx=0;exitDy=0;jumpSize=0;" parent="1" edge="1">
                    <mxGeometry width="50" height="50" relative="1" as="geometry">
                        <mxPoint x="3819.9999999999995" y="-855" as="sourcePoint"/>
                        <mxPoint x="3783.23" y="-824" as="targetPoint"/>
                    </mxGeometry>
                </mxCell>
                <mxCell id="8" value="&lt;br style=&quot;font-size: 17px&quot;&gt;STREAM_1D:&lt;br style=&quot;font-size: 17px&quot;&gt;&#9;&lt;blockquote style=&quot;margin: 0px 0px 0px 40px ; border: none ; padding: 0px ; font-size: 17px&quot;&gt;&lt;font color=&quot;#0000ff&quot; style=&quot;font-size: 17px&quot;&gt;START_IDX: 0&lt;br style=&quot;font-size: 17px&quot;&gt;STATE: GENERATE&lt;br style=&quot;font-size: 17px&quot;&gt;X_MODIFY: +1&lt;br style=&quot;font-size: 17px&quot;&gt;X_COUNT: X&lt;/font&gt;&lt;/blockquote&gt;&lt;font color=&quot;#0000ff&quot; style=&quot;font-size: 17px&quot;&gt;&lt;span style=&quot;font-size: 17px&quot;&gt;&#9;&lt;/span&gt;&lt;br style=&quot;font-size: 17px&quot;&gt;&lt;/font&gt;&lt;span style=&quot;font-size: 17px&quot;&gt;&#9;&lt;/span&gt;" style="text;html=1;strokeColor=default;fillColor=none;spacing=5;spacingTop=-20;whiteSpace=wrap;overflow=hidden;rounded=0;sketch=0;fontSize=17;" parent="1" vertex="1">
                    <mxGeometry x="3556" y="-919" width="222.54" height="120" as="geometry"/>
                </mxCell>
                <mxCell id="38" style="edgeStyle=none;html=1;exitX=0.5;exitY=1;exitDx=0;exitDy=0;entryX=0.5;entryY=0;entryDx=0;entryDy=0;" parent="1" source="3" target="3" edge="1">
                    <mxGeometry relative="1" as="geometry"/>
                </mxCell>
                <mxCell id="39" value="C1" style="whiteSpace=wrap;html=1;aspect=fixed;fillColor=#FFFFCC;strokeColor=#000000;strokeWidth=3;fontSize=50;fontStyle=1;verticalAlign=bottom;" parent="1" vertex="1">
                    <mxGeometry x="3826.2799999999993" y="-508.9999999999999" width="140" height="140" as="geometry"/>
                </mxCell>
                <mxCell id="146" style="edgeStyle=none;html=1;entryX=0;entryY=0.5;entryDx=0;entryDy=0;" edge="1" parent="1" source="40" target="126">
                    <mxGeometry relative="1" as="geometry">
                        <Array as="points">
                            <mxPoint x="3898" y="-490"/>
                            <mxPoint x="3858" y="-490"/>
                            <mxPoint x="3858" y="-467"/>
                        </Array>
                    </mxGeometry>
                </mxCell>
                <mxCell id="40" value="" style="rounded=0;whiteSpace=wrap;html=1;fontSize=50;fontColor=#000000;strokeColor=#000000;strokeWidth=6;fillColor=#000000;rotation=-180;" parent="1" vertex="1">
                    <mxGeometry x="3881.28" y="-520" width="30" height="11" as="geometry"/>
                </mxCell>
                <mxCell id="42" value="WAG" style="ellipse;whiteSpace=wrap;html=1;aspect=fixed;sketch=0;fillColor=#d5e8d4;strokeColor=#82b366;" parent="1" vertex="1">
                    <mxGeometry x="3832.999999999999" y="-453.99999999999994" width="30" height="30" as="geometry"/>
                </mxCell>
                <mxCell id="43" value="" style="endArrow=none;dashed=1;html=1;dashPattern=1 3;strokeWidth=1;exitX=0.5;exitY=0;exitDx=0;exitDy=0;jumpSize=0;" parent="1" edge="1">
                    <mxGeometry width="50" height="50" relative="1" as="geometry">
                        <mxPoint x="3826.2799999999993" y="-439.3" as="sourcePoint"/>
                        <mxPoint x="3791.2799999999993" y="-478.3" as="targetPoint"/>
                    </mxGeometry>
                </mxCell>
                <mxCell id="44" value="" style="endArrow=none;dashed=1;html=1;dashPattern=1 3;strokeWidth=1;exitX=0.5;exitY=0;exitDx=0;exitDy=0;jumpSize=0;" parent="1" edge="1">
                    <mxGeometry width="50" height="50" relative="1" as="geometry">
                        <mxPoint x="3826.2799999999993" y="-439.3" as="sourcePoint"/>
                        <mxPoint x="3791.28" y="-399.3" as="targetPoint"/>
                    </mxGeometry>
                </mxCell>
                <mxCell id="45" value="&lt;br&gt;WAIT:&lt;br&gt;&lt;blockquote style=&quot;border: none ; margin: 0px 0px 0px 40px ; padding: 0px&quot;&gt;&lt;font color=&quot;#0000ff&quot;&gt;START_IDX: 0&lt;br&gt;STATE: GENERATE&lt;br&gt;X_MODIFY: +1&lt;br&gt;X_COUNT: 1&lt;/font&gt;&lt;/blockquote&gt;STREAM_1D:&lt;br style=&quot;font-size: 17px&quot;&gt;&#9;&lt;blockquote style=&quot;margin: 0px 0px 0px 40px ; border: none ; padding: 0px ; font-size: 17px&quot;&gt;&lt;font color=&quot;#0000ff&quot; style=&quot;font-size: 17px&quot;&gt;START_IDX: 0&lt;br style=&quot;font-size: 17px&quot;&gt;STATE: GENERATE&lt;br style=&quot;font-size: 17px&quot;&gt;X_MODIFY: +1&lt;br style=&quot;font-size: 17px&quot;&gt;X_COUNT: X&lt;/font&gt;&lt;/blockquote&gt;&lt;font color=&quot;#0000ff&quot; style=&quot;font-size: 17px&quot;&gt;&lt;span style=&quot;font-size: 17px&quot;&gt;&#9;&lt;/span&gt;&lt;br style=&quot;font-size: 17px&quot;&gt;&lt;/font&gt;&lt;span style=&quot;font-size: 17px&quot;&gt;&#9;&lt;/span&gt;" style="text;html=1;strokeColor=default;fillColor=none;spacing=5;spacingTop=-20;whiteSpace=wrap;overflow=hidden;rounded=0;sketch=0;fontSize=17;" parent="1" vertex="1">
                    <mxGeometry x="3555.9999999999995" y="-609" width="222.54" height="240" as="geometry"/>
                </mxCell>
                <mxCell id="46" style="edgeStyle=none;html=1;exitX=0.5;exitY=1;exitDx=0;exitDy=0;entryX=0.5;entryY=0;entryDx=0;entryDy=0;" parent="1" source="40" target="40" edge="1">
                    <mxGeometry relative="1" as="geometry"/>
                </mxCell>
                <mxCell id="82" value="&lt;font color=&quot;#000000&quot; style=&quot;font-size: 15px;&quot;&gt;Data Transfer Direction&lt;/font&gt;" style="text;strokeColor=none;fillColor=none;html=1;fontSize=15;fontStyle=1;verticalAlign=middle;align=center;fontColor=#C2C474;rotation=-90;" parent="1" vertex="1">
                    <mxGeometry x="3489" y="-725.9000000000001" width="326" height="37.49" as="geometry"/>
                </mxCell>
                <mxCell id="9" style="edgeStyle=orthogonalEdgeStyle;curved=1;orthogonalLoop=1;jettySize=auto;html=1;entryX=0;entryY=0.5;entryDx=0;entryDy=0;fontSize=12;strokeWidth=2;endSize=1;horizontal=0;" parent="1" edge="1">
                    <mxGeometry relative="1" as="geometry">
                        <mxPoint x="3954.73" y="-741.0000000000002" as="sourcePoint"/>
                        <mxPoint x="3976.73" y="-725.0000000000002" as="targetPoint"/>
                        <Array as="points">
                            <mxPoint x="3954.73" y="-750.0000000000002"/>
                            <mxPoint x="3954.73" y="-725.0000000000002"/>
                        </Array>
                    </mxGeometry>
                </mxCell>
                <mxCell id="10" value="táµ£=0" style="text;html=1;align=center;verticalAlign=middle;resizable=0;points=[];autosize=1;strokeColor=none;fillColor=none;fontSize=15;fontStyle=1;rotation=90;horizontal=0;fontColor=#6E9972;" parent="1" vertex="1">
                    <mxGeometry x="3912.73" y="-758.5900000000003" width="40" height="20" as="geometry"/>
                </mxCell>
                <mxCell id="11" value="0" style="rounded=0;whiteSpace=wrap;html=1;fontSize=15;strokeWidth=2;fontStyle=1;fillColor=none;strokeColor=#000000;rotation=90;horizontal=0;" parent="1" vertex="1">
                    <mxGeometry x="3976.73" y="-741.0000000000002" width="27.987082884822392" height="24.824896465763338" as="geometry"/>
                </mxCell>
                <mxCell id="12" style="edgeStyle=orthogonalEdgeStyle;curved=1;orthogonalLoop=1;jettySize=auto;html=1;entryX=1;entryY=0.5;entryDx=0;entryDy=0;fontSize=12;endSize=1;strokeWidth=2;horizontal=0;" parent="1" edge="1">
                    <mxGeometry relative="1" as="geometry">
                        <mxPoint x="4004.73" y="-727.0000000000002" as="sourcePoint"/>
                        <mxPoint x="4004.73" y="-702.0000000000002" as="targetPoint"/>
                        <Array as="points">
                            <mxPoint x="4033.73" y="-727.0000000000002"/>
                            <mxPoint x="4033.73" y="-702.0000000000002"/>
                        </Array>
                    </mxGeometry>
                </mxCell>
                <mxCell id="13" value="1" style="rounded=0;whiteSpace=wrap;html=1;fontSize=15;strokeWidth=2;fontStyle=1;fillColor=none;strokeColor=#000000;rotation=90;horizontal=0;direction=east;" parent="1" vertex="1">
                    <mxGeometry x="3976.73" y="-713.0000000000002" width="27.987082884822392" height="24.824896465763338" as="geometry"/>
                </mxCell>
                <mxCell id="14" value="2" style="rounded=0;whiteSpace=wrap;html=1;fontSize=15;strokeWidth=2;fontStyle=1;fillColor=none;strokeColor=#000000;rotation=90;horizontal=0;" parent="1" vertex="1">
                    <mxGeometry x="3976.73" y="-685.0000000000002" width="27.987082884822392" height="24.824896465763338" as="geometry"/>
                </mxCell>
                <mxCell id="15" value="3" style="rounded=0;whiteSpace=wrap;html=1;fontSize=15;strokeWidth=2;fontStyle=1;fillColor=none;strokeColor=#000000;rotation=90;horizontal=0;" parent="1" vertex="1">
                    <mxGeometry x="3976.73" y="-657.0000000000002" width="27.987082884822392" height="24.824896465763338" as="geometry"/>
                </mxCell>
                <mxCell id="20" style="edgeStyle=orthogonalEdgeStyle;curved=1;orthogonalLoop=1;jettySize=auto;html=1;fontSize=12;strokeWidth=2;endSize=1;horizontal=0;" parent="1" edge="1">
                    <mxGeometry relative="1" as="geometry">
                        <mxPoint x="3977.73" y="-696.0000000000002" as="sourcePoint"/>
                        <mxPoint x="3977.73" y="-671.0000000000002" as="targetPoint"/>
                        <Array as="points">
                            <mxPoint x="3955.73" y="-696.0000000000002"/>
                            <mxPoint x="3955.73" y="-671.0000000000002"/>
                        </Array>
                    </mxGeometry>
                </mxCell>
                <mxCell id="21" style="edgeStyle=orthogonalEdgeStyle;curved=1;orthogonalLoop=1;jettySize=auto;html=1;entryX=1;entryY=0.5;entryDx=0;entryDy=0;fontSize=12;endSize=1;strokeWidth=2;horizontal=0;" parent="1" edge="1">
                    <mxGeometry relative="1" as="geometry">
                        <mxPoint x="4002.73" y="-670.0000000000002" as="sourcePoint"/>
                        <mxPoint x="4002.73" y="-645.0000000000002" as="targetPoint"/>
                        <Array as="points">
                            <mxPoint x="4031.73" y="-670.0000000000002"/>
                            <mxPoint x="4031.73" y="-645.0000000000002"/>
                        </Array>
                    </mxGeometry>
                </mxCell>
                <mxCell id="29" value="" style="endArrow=none;dashed=1;html=1;fontSize=15;endSize=1;strokeWidth=2;curved=1;horizontal=0;" parent="1" edge="1">
                    <mxGeometry width="50" height="50" relative="1" as="geometry">
                        <mxPoint x="3991" y="-582.4900000000002" as="sourcePoint"/>
                        <mxPoint x="3991" y="-631.1800000000001" as="targetPoint"/>
                    </mxGeometry>
                </mxCell>
                <mxCell id="35" value="X-1" style="rounded=0;whiteSpace=wrap;html=1;fontSize=15;strokeWidth=2;fontStyle=1;fillColor=none;strokeColor=#000000;rotation=90;horizontal=0;" parent="1" vertex="1">
                    <mxGeometry x="3977.01" y="-586.9000000000001" width="27.99" height="34.82" as="geometry"/>
                </mxCell>
                <mxCell id="36" style="edgeStyle=orthogonalEdgeStyle;curved=1;orthogonalLoop=1;jettySize=auto;html=1;fontSize=12;strokeWidth=2;endSize=1;horizontal=0;" parent="1" edge="1">
                    <mxGeometry relative="1" as="geometry">
                        <mxPoint x="3953" y="-592.4900000000002" as="sourcePoint"/>
                        <mxPoint x="3975" y="-567.49" as="targetPoint"/>
                        <Array as="points">
                            <mxPoint x="3953" y="-567.4900000000002"/>
                        </Array>
                    </mxGeometry>
                </mxCell>
                <mxCell id="54" value="tw=1" style="text;html=1;align=center;verticalAlign=middle;resizable=0;points=[];autosize=1;strokeColor=none;fillColor=none;fontSize=15;fontStyle=1;rotation=90;horizontal=0;fontColor=#C2C474;" parent="1" vertex="1">
                    <mxGeometry x="3907.73" y="-738.5900000000001" width="50" height="20" as="geometry"/>
                </mxCell>
                <mxCell id="55" value="tw=3" style="text;html=1;align=center;verticalAlign=middle;resizable=0;points=[];autosize=1;strokeColor=none;fillColor=none;fontSize=15;fontStyle=1;rotation=90;horizontal=0;fontColor=#C2C474;" parent="1" vertex="1">
                    <mxGeometry x="3907.73" y="-687.0000000000002" width="50" height="20" as="geometry"/>
                </mxCell>
                <mxCell id="58" value="táµ£=2" style="text;html=1;align=center;verticalAlign=middle;resizable=0;points=[];autosize=1;strokeColor=none;fillColor=none;fontSize=15;fontStyle=1;rotation=90;horizontal=0;fontColor=#6E9972;" parent="1" vertex="1">
                    <mxGeometry x="3912.73" y="-707.0000000000002" width="40" height="20" as="geometry"/>
                </mxCell>
                <mxCell id="65" value="táµ£=X-1" style="text;html=1;align=center;verticalAlign=middle;resizable=0;points=[];autosize=1;strokeColor=none;fillColor=none;fontSize=15;fontStyle=1;rotation=90;horizontal=0;fontColor=#6E9972;" parent="1" vertex="1">
                    <mxGeometry x="3898" y="-601.4900000000002" width="60" height="20" as="geometry"/>
                </mxCell>
                <mxCell id="66" value="tw=X" style="text;html=1;align=center;verticalAlign=middle;resizable=0;points=[];autosize=1;strokeColor=none;fillColor=none;fontSize=15;fontStyle=1;rotation=90;horizontal=0;fontColor=#C2C474;" parent="1" vertex="1">
                    <mxGeometry x="3903" y="-581.4900000000002" width="50" height="20" as="geometry"/>
                </mxCell>
                <mxCell id="67" value="táµ£=1" style="text;html=1;align=center;verticalAlign=middle;resizable=0;points=[];autosize=1;strokeColor=none;fillColor=none;fontSize=15;fontStyle=1;rotation=90;horizontal=0;fontColor=#6E9972;" parent="1" vertex="1">
                    <mxGeometry x="4032.27" y="-733.0000000000002" width="40" height="20" as="geometry"/>
                </mxCell>
                <mxCell id="68" value="tw=2" style="text;html=1;align=center;verticalAlign=middle;resizable=0;points=[];autosize=1;strokeColor=none;fillColor=none;fontSize=15;fontStyle=1;rotation=90;horizontal=0;fontColor=#C2C474;" parent="1" vertex="1">
                    <mxGeometry x="4027.27" y="-716.1800000000001" width="50" height="20" as="geometry"/>
                </mxCell>
                <mxCell id="69" value="tw=4" style="text;html=1;align=center;verticalAlign=middle;resizable=0;points=[];autosize=1;strokeColor=none;fillColor=none;fontSize=15;fontStyle=1;rotation=90;horizontal=0;fontColor=#C2C474;" parent="1" vertex="1">
                    <mxGeometry x="4027.27" y="-660.1800000000002" width="50" height="20" as="geometry"/>
                </mxCell>
                <mxCell id="72" value="táµ£=3" style="text;html=1;align=center;verticalAlign=middle;resizable=0;points=[];autosize=1;strokeColor=none;fillColor=none;fontSize=15;fontStyle=1;rotation=90;horizontal=0;fontColor=#6E9972;" parent="1" vertex="1">
                    <mxGeometry x="4031.73" y="-677.0000000000002" width="40" height="20" as="geometry"/>
                </mxCell>
                <mxCell id="102" style="edgeStyle=orthogonalEdgeStyle;curved=1;orthogonalLoop=1;jettySize=auto;html=1;fontSize=12;strokeWidth=2;endSize=1;horizontal=0;" parent="1" edge="1">
                    <mxGeometry relative="1" as="geometry">
                        <mxPoint x="3977.01" y="-648.5000000000002" as="sourcePoint"/>
                        <mxPoint x="3954.73" y="-623.69" as="targetPoint"/>
                        <Array as="points">
                            <mxPoint x="3955.01" y="-648.5000000000002"/>
                            <mxPoint x="3955.01" y="-623.5000000000002"/>
                        </Array>
                    </mxGeometry>
                </mxCell>
                <mxCell id="123" style="edgeStyle=none;html=1;entryX=0.5;entryY=1;entryDx=0;entryDy=0;" edge="1" parent="1" source="110" target="3">
                    <mxGeometry relative="1" as="geometry">
                        <Array as="points">
                            <mxPoint x="3950" y="-837"/>
                            <mxPoint x="3950" y="-810"/>
                            <mxPoint x="3897" y="-810"/>
                        </Array>
                    </mxGeometry>
                </mxCell>
                <mxCell id="110" value="" style="rounded=0;whiteSpace=wrap;html=1;fillColor=#000000;" vertex="1" parent="1">
                    <mxGeometry x="3917.4176216832166" y="-842.5" width="7.732378316783294" height="10" as="geometry"/>
                </mxCell>
                <mxCell id="117" value="dout" style="text;html=1;strokeColor=none;fillColor=none;align=center;verticalAlign=middle;whiteSpace=wrap;rounded=0;fontSize=10;rotation=0;fontStyle=3" vertex="1" parent="1">
                    <mxGeometry x="3896.3600000000006" y="-845" width="12.58" height="15" as="geometry"/>
                </mxCell>
                <mxCell id="122" value="" style="group" vertex="1" connectable="0" parent="1">
                    <mxGeometry x="3870" y="-860" width="47.42" height="32.63" as="geometry"/>
                </mxCell>
                <mxCell id="105" value="SRAM" style="rounded=0;whiteSpace=wrap;html=1;fontSize=8;labelBackgroundColor=none;fillColor=none;fontStyle=1;strokeWidth=1;" vertex="1" parent="122">
                    <mxGeometry x="0.0014179001992997865" width="47.41716419960075" height="12.500000000000004" as="geometry"/>
                </mxCell>
                <mxCell id="106" value="" style="rounded=0;whiteSpace=wrap;html=1;fontSize=8;labelBackgroundColor=none;fillColor=none;fontStyle=1;strokeWidth=1;" vertex="1" parent="122">
                    <mxGeometry y="12.500000000000004" width="47.42000000000003" height="20.130000000000003" as="geometry"/>
                </mxCell>
                <mxCell id="126" value="" style="rounded=0;whiteSpace=wrap;html=1;fillColor=#000000;" vertex="1" parent="1">
                    <mxGeometry x="3897.997621683217" y="-472.5" width="7.732378316783294" height="10" as="geometry"/>
                </mxCell>
                <mxCell id="145" value="" style="group" vertex="1" connectable="0" parent="1">
                    <mxGeometry x="3905.88" y="-490" width="57.39" height="30.009999999999998" as="geometry"/>
                </mxCell>
                <mxCell id="127" value="SRAM" style="rounded=0;whiteSpace=wrap;html=1;fontSize=8;labelBackgroundColor=none;fillColor=none;fontStyle=1;strokeWidth=1;" vertex="1" parent="145">
                    <mxGeometry width="50" height="9.38" as="geometry"/>
                </mxCell>
                <mxCell id="128" value="" style="rounded=0;whiteSpace=wrap;html=1;fontSize=8;labelBackgroundColor=none;fillColor=none;fontStyle=1;strokeWidth=1;" vertex="1" parent="145">
                    <mxGeometry y="9.38" width="50" height="20.63" as="geometry"/>
                </mxCell>
                <mxCell id="143" value="dina" style="text;html=1;strokeColor=none;fillColor=none;align=center;verticalAlign=middle;whiteSpace=wrap;rounded=0;fontSize=10;rotation=0;fontStyle=3" vertex="1" parent="145">
                    <mxGeometry x="12.708804525795907" y="14.0725" width="10.822856424440475" height="11.25" as="geometry"/>
                </mxCell>
            </root>
        </mxGraphModel>
    </diagram>
</mxfile>